<?xml version="1.0" encoding="UTF-8"?>
<svg id="_圖層_2" data-name="圖層 2" xmlns="http://www.w3.org/2000/svg" viewBox="0 0 1754.53 1368.46">
  <defs>
    <style>
      .cls-1 {
        fill: #fff;
      }

      .cls-2 {
        fill: #1c1c1b;
      }
    </style>
  </defs>
  <g id="Layer_1" data-name="Layer 1">
    <g id="LWPOLYLINE">
      <path class="cls-2" d="M695.87,105.58v240.71c0,1.88,1.52,3.4,3.4,3.4h20.41c12.21,0,22.11,9.9,22.11,22.11,0,12.21-9.9,22.11-22.11,22.11h-51.02c-9.39,0-17.01-7.61-17.01-17.01V105.58c0-12.21,9.9-22.11,22.11-22.11s22.11,9.9,22.11,22.11Z"/>
    </g>
    <g id="LWPOLYLINE-2" data-name="LWPOLYLINE">
      <path class="cls-2" d="M793.2,300.36V105.58c0-12.21,9.9-22.11,22.11-22.11,12.21,0,22.11,9.9,22.11,22.11v193.41c0,28.18,22.84,51.02,51.02,51.02h1.77c28.18,0,51.02-22.84,51.02-51.02V105.58c0-12.21,9.9-22.11,22.11-22.11s22.11,9.9,22.11,22.11v194.79c0,51.66-41.88,93.54-93.54,93.54h-5.17c-51.66,0-93.54-41.88-93.54-93.54Z"/>
    </g>
    <g id="LWPOLYLINE-3" data-name="LWPOLYLINE">
      <path class="cls-2" d="M1171.96,263.33h-71.38c-4.7,0-8.5,3.81-8.5,8.5v69.35c0,4.7,3.81,8.5,8.5,8.5h120.45c12.21,0,22.11,9.9,22.11,22.11s-9.9,22.11-22.11,22.11h-156.16c-9.39,0-17.01-7.61-17.01-17.01V100.47c0-9.39,7.61-17.01,17.01-17.01h153.02c12.21,0,22.11,9.9,22.11,22.11,0,12.21-9.9,22.11-22.11,22.11h-117.31c-4.7,0-8.5,3.81-8.5,8.5v74.41c0,4.7,3.81,8.5,8.5,8.5h71.38c12.21,0,22.11,9.9,22.11,22.11,0,12.21-9.9,22.11-22.11,22.11Z"/>
    </g>
    <g id="LWPOLYLINE-4" data-name="LWPOLYLINE">
      <path class="cls-2" d="M1333.15,1304.84c-9.39,0-17.01-7.61-17.01-17.01v-272.72c0-12.21,9.9-22.11,22.11-22.11,12.21,0,22.11,9.9,22.11,22.11v243.81c0,.94,.76,1.7,1.7,1.7h22.11c12.21,0,22.11,9.9,22.11,22.11,0,12.21-9.9,22.11-22.11,22.11h-51.02Z"/>
    </g>
    <g id="LWPOLYLINE-5" data-name="LWPOLYLINE">
      <path class="cls-2" d="M1492.46,1015.11v243.81c0,.94,.76,1.7,1.7,1.7h22.11c12.21,0,22.11,9.9,22.11,22.11s-9.9,22.11-22.11,22.11h-51.02c-9.39,0-17.01-7.61-17.01-17.01v-272.72c0-12.21,9.9-22.11,22.11-22.11,12.21,0,22.11,9.9,22.11,22.11Z"/>
    </g>
    <g id="LWPOLYLINE-6" data-name="LWPOLYLINE">
      <path class="cls-2" d="M1669.49,1126.99c46.97,0,85.04,38.07,85.04,85.04v7.77c0,46.97-38.07,85.04-85.04,85.04h-68.48c-12.21,0-22.11-9.9-22.11-22.11,0-12.21,9.9-22.11,22.11-22.11h68.48c22.54,0,40.82-18.28,40.82-40.82v-7.77c0-22.54-18.28-40.82-40.82-40.82h-5.55c-46.97,0-85.04-38.07-85.04-85.04v-8.13c0-46.97,38.07-85.04,85.04-85.04h68.48c12.21,0,22.11,9.9,22.11,22.11s-9.9,22.11-22.11,22.11h-68.48c-22.54,0-40.82,18.28-40.82,40.82v8.13c0,22.54,18.28,40.82,40.82,40.82h5.55Z"/>
    </g>
    <path class="cls-2" d="M500.84,365.78c30.85-39.77,47.6-88.67,47.6-139.01C548.44,101.53,446.91,0,321.67,0H0V822.05H301.04v-85.04H85.04V453.54H488.3c78.28,0,141.73,63.46,141.73,141.73s-63.46,141.73-141.73,141.73h-73.87v85.04h111.3c106.33-17.55,186.18-106.62,192.07-214.23,6.93-126.75-90.2-235.11-216.95-242.04Zm-179.17,2.73H85.04V85.04h236.63c78.28,0,141.73,63.46,141.73,141.73s-63.46,141.73-141.73,141.73Z"/>
    <path class="cls-2" d="M810.69,912.2c9.56-12.32,17.81-25.58,24.65-39.59,54.9-112.57,8.16-248.33-104.41-303.23,3.41,31.92,.48,64.21-8.61,95,60.1,50.15,68.17,139.53,18.02,199.63-26.93,32.27-66.79,50.93-108.82,50.93h-231.26v-283.46h210.36c8.29-28.02,6.7-58.04-4.49-85.04H315.22v822.05H835.58c106.33-17.55,186.18-106.62,192.07-214.23,6.93-126.75-90.2-235.11-216.95-242.04Zm-12.54,371.23H400.26v-283.46h397.89c78.28,0,141.73,63.46,141.73,141.73s-63.46,141.73-141.73,141.73Z"/>
    <path class="cls-2" d="M1171.9,993h-5.74c-51.66,0-93.54,41.88-93.54,93.54v196.19c0,12.21,9.9,22.11,22.11,22.11s22.11-9.9,22.11-22.11v-43.13h104.39v43.13c0,12.21,9.9,22.11,22.11,22.11s22.11-9.9,22.11-22.11v-196.19c0-51.66-41.88-93.54-93.54-93.54Zm49.32,202.37h-104.39v-109.31c0-28.18,22.84-51.02,51.02-51.02h2.34c28.18,0,51.02,22.84,51.02,51.02v109.31Z"/>
  </g>
  <g id="_圖層_2-2" data-name="圖層 2">
    <g id="LWPOLYLINE-7" data-name="LWPOLYLINE">
      <path class="cls-1" d="M695.87,105.58v240.71c0,1.88,1.52,3.4,3.4,3.4h20.41c12.21,0,22.11,9.9,22.11,22.11,0,12.21-9.9,22.11-22.11,22.11h-51.02c-9.39,0-17.01-7.61-17.01-17.01V105.58c0-12.21,9.9-22.11,22.11-22.11s22.11,9.9,22.11,22.11Z"/>
    </g>
    <g id="LWPOLYLINE-8" data-name="LWPOLYLINE">
      <path class="cls-1" d="M793.2,300.36V105.58c0-12.21,9.9-22.11,22.11-22.11,12.21,0,22.11,9.9,22.11,22.11v193.41c0,28.18,22.84,51.02,51.02,51.02h1.77c28.18,0,51.02-22.84,51.02-51.02V105.58c0-12.21,9.9-22.11,22.11-22.11s22.11,9.9,22.11,22.11v194.79c0,51.66-41.88,93.54-93.54,93.54h-5.17c-51.66,0-93.54-41.88-93.54-93.54Z"/>
    </g>
    <g id="LWPOLYLINE-9" data-name="LWPOLYLINE">
      <path class="cls-1" d="M1171.96,263.33h-71.38c-4.7,0-8.5,3.81-8.5,8.5v69.35c0,4.7,3.81,8.5,8.5,8.5h120.45c12.21,0,22.11,9.9,22.11,22.11s-9.9,22.11-22.11,22.11h-156.16c-9.39,0-17.01-7.61-17.01-17.01V100.47c0-9.39,7.61-17.01,17.01-17.01h153.02c12.21,0,22.11,9.9,22.11,22.11,0,12.21-9.9,22.11-22.11,22.11h-117.31c-4.7,0-8.5,3.81-8.5,8.5v74.41c0,4.7,3.81,8.5,8.5,8.5h71.38c12.21,0,22.11,9.9,22.11,22.11,0,12.21-9.9,22.11-22.11,22.11Z"/>
    </g>
    <g id="LWPOLYLINE-10" data-name="LWPOLYLINE">
      <path class="cls-1" d="M1333.15,1304.84c-9.39,0-17.01-7.61-17.01-17.01v-272.72c0-12.21,9.9-22.11,22.11-22.11,12.21,0,22.11,9.9,22.11,22.11v243.81c0,.94,.76,1.7,1.7,1.7h22.11c12.21,0,22.11,9.9,22.11,22.11,0,12.21-9.9,22.11-22.11,22.11h-51.02Z"/>
    </g>
    <g id="LWPOLYLINE-11" data-name="LWPOLYLINE">
      <path class="cls-1" d="M1492.46,1015.11v243.81c0,.94,.76,1.7,1.7,1.7h22.11c12.21,0,22.11,9.9,22.11,22.11s-9.9,22.11-22.11,22.11h-51.02c-9.39,0-17.01-7.61-17.01-17.01v-272.72c0-12.21,9.9-22.11,22.11-22.11,12.21,0,22.11,9.9,22.11,22.11Z"/>
    </g>
    <g id="LWPOLYLINE-12" data-name="LWPOLYLINE">
      <path class="cls-1" d="M1669.49,1126.99c46.97,0,85.04,38.07,85.04,85.04v7.77c0,46.97-38.07,85.04-85.04,85.04h-68.48c-12.21,0-22.11-9.9-22.11-22.11,0-12.21,9.9-22.11,22.11-22.11h68.48c22.54,0,40.82-18.28,40.82-40.82v-7.77c0-22.54-18.28-40.82-40.82-40.82h-5.55c-46.97,0-85.04-38.07-85.04-85.04v-8.13c0-46.97,38.07-85.04,85.04-85.04h68.48c12.21,0,22.11,9.9,22.11,22.11s-9.9,22.11-22.11,22.11h-68.48c-22.54,0-40.82,18.28-40.82,40.82v8.13c0,22.54,18.28,40.82,40.82,40.82h5.55Z"/>
    </g>
    <path class="cls-1" d="M500.84,365.78c30.85-39.77,47.6-88.67,47.6-139.01C548.44,101.53,446.91,0,321.67,0H0V822.05H301.04v-85.04H85.04V453.54H488.3c78.28,0,141.73,63.46,141.73,141.73s-63.46,141.73-141.73,141.73h-73.87v85.04h111.3c106.33-17.55,186.18-106.62,192.07-214.23,6.93-126.75-90.2-235.11-216.95-242.04Zm-179.17,2.73H85.04V85.04h236.63c78.28,0,141.73,63.46,141.73,141.73s-63.46,141.73-141.73,141.73Z"/>
    <path class="cls-1" d="M810.69,912.2c9.56-12.32,17.81-25.58,24.65-39.59,54.9-112.57,8.16-248.33-104.41-303.23,3.41,31.92,.48,64.21-8.61,95,60.1,50.15,68.17,139.53,18.02,199.63-26.93,32.27-66.79,50.93-108.82,50.93h-231.26v-283.46h210.36c8.29-28.02,6.7-58.04-4.49-85.04H315.22v822.05H835.58c106.33-17.55,186.18-106.62,192.07-214.23,6.93-126.75-90.2-235.11-216.95-242.04Zm-12.54,371.23H400.26v-283.46h397.89c78.28,0,141.73,63.46,141.73,141.73s-63.46,141.73-141.73,141.73Z"/>
    <path class="cls-1" d="M1171.9,993h-5.74c-51.66,0-93.54,41.88-93.54,93.54v196.19c0,12.21,9.9,22.11,22.11,22.11s22.11-9.9,22.11-22.11v-43.13h104.39v43.13c0,12.21,9.9,22.11,22.11,22.11s22.11-9.9,22.11-22.11v-196.19c0-51.66-41.88-93.54-93.54-93.54Zm49.32,202.37h-104.39v-109.31c0-28.18,22.84-51.02,51.02-51.02h2.34c28.18,0,51.02,22.84,51.02,51.02v109.31Z"/>
  </g>
</svg>